<svg xmlns="http://www.w3.org/2000/svg" width="132" height="78" viewBox="0 0 132 78">
  <defs>
    <style>
      .cls-1 {
        fill: #e3e1ff;
      }

      .cls-2 {
        fill: #6159e5;
      }
    </style>
  </defs>
  <g id="Grupo_10" data-name="Grupo 10" transform="translate(-1310 -182)">
    <path id="Icon_awesome-cloud" data-name="Icon awesome-cloud" class="cls-1" d="M110.88,36.131a14.539,14.539,0,0,0,1.32-6.024c0-9.228-8.869-16.714-19.8-16.714a22.355,22.355,0,0,0-10.993,2.821C75.694,7.856,65.031,2.25,52.8,2.25c-18.233,0-33,12.466-33,27.857,0,.47.021.94.041,1.41C8.291,34.947,0,44.245,0,55.179,0,69.02,13.3,80.25,29.7,80.25h75.9c14.582,0,26.4-9.976,26.4-22.286C132,47.187,122.925,38.186,110.88,36.131Z" transform="translate(1310 179.75)"/>
    <path id="Icon_awesome-wifi" data-name="Icon awesome-wifi" class="cls-2" d="M58.831,12.29C42.415-1.1,16.882-1.094.472,12.29a1.2,1.2,0,0,0-.032,1.878l3.173,2.775a1.654,1.654,0,0,0,2.076.031c13.521-10.922,34.4-10.925,47.929,0a1.655,1.655,0,0,0,2.076-.031l3.173-2.775a1.2,1.2,0,0,0-.033-1.878ZM29.651,28.4c-3.276,0-5.93,2.341-5.93,5.229s2.655,5.229,5.93,5.229,5.93-2.341,5.93-5.229S32.927,28.4,29.651,28.4Zm18.78-6.83c-10.68-8.328-26.891-8.319-37.559,0a1.191,1.191,0,0,0-.053,1.891l3.191,2.777a1.665,1.665,0,0,0,2.043.065,23.033,23.033,0,0,1,27.2,0,1.663,1.663,0,0,0,2.043-.065l3.191-2.777A1.191,1.191,0,0,0,48.431,21.566Z" transform="translate(1343.983 208.75)"/>
  </g>
</svg>
