<svg xmlns="http://www.w3.org/2000/svg" xmlns:xlink="http://www.w3.org/1999/xlink" width="1189.966" height="804.086" viewBox="0 0 1189.966 804.086">
  <defs>
    <style>
      .cls-1, .cls-5, .cls-7 {
        fill: #6c63ff;
      }

      .cls-1, .cls-14, .cls-3, .cls-9 {
        opacity: 0.1;
      }

      .cls-2 {
        fill: #464353;
      }

      .cls-3, .cls-4, .cls-6 {
        fill: #fff;
      }

      .cls-3, .cls-6 {
        stroke: #fff;
        stroke-miterlimit: 10;
      }

      .cls-7 {
        opacity: 0.3;
      }

      .cls-8 {
        fill: #3f3d56;
      }

      .cls-10 {
        fill: url(#linear-gradient);
      }

      .cls-11 {
        fill: #a26565;
      }

      .cls-12 {
        fill: #454b69;
      }

      .cls-13 {
        fill: #ee8e9e;
      }
    </style>
    <linearGradient id="linear-gradient" x1="-6.735" y1="1" x2="-6.735" gradientUnits="objectBoundingBox">
      <stop offset="0" stop-color="gray" stop-opacity="0.251"/>
      <stop offset="0.54" stop-color="gray" stop-opacity="0.122"/>
      <stop offset="1" stop-color="gray" stop-opacity="0.102"/>
    </linearGradient>
  </defs>
  <g id="Grupo_2" data-name="Grupo 2" transform="translate(-0.001 0.015)">
    <path id="Trazado_1" data-name="Trazado 1" class="cls-1" d="M726.393,165.681c-76.286-2.475-148.948-25.541-218.326-50.776S369.955,61.732,295.5,48.351c-47.894-8.6-102.665-9.861-141.25,14.23-37.142,23.135-49.137,63.112-55.582,100.142-4.855,27.888-7.709,57.2,5.581,83.338,9.236,18.115,25.632,33.351,36.974,50.707,39.438,60.41,11.584,134.893-31.192,193.863C90.024,518.3,66.719,544.69,51.249,574.146s-22.631,63.191-9.1,93.229c13.427,29.781,45.4,52.107,80.045,67.885,70.357,31.951,153.266,41.1,234.111,46.279,178.961,11.459,358.881,6.5,538.316,1.529,66.408-1.844,133.1-3.708,198.433-13.323,36.268-5.335,73.716-13.806,100.043-34.268,33.435-25.975,41.723-69.956,19.314-102.558-37.574-54.622-141.482-68.191-167.746-126.816-14.459-32.266.39-68.211,21.4-98.14,45.072-64.207,120.62-120.525,124.6-193.913,2.738-50.4-33.583-100.881-89.733-124.726-58.868-25-140.482-21.853-183.911,19.525C872.329,151.47,793.748,167.87,726.393,165.681Z" transform="translate(-35 -42.72)"/>
    <rect id="Rectángulo_1" data-name="Rectángulo 1" class="cls-2" width="514" height="618.97" rx="19.8" transform="translate(364.77 123.581)"/>
    <rect id="Rectángulo_2" data-name="Rectángulo 2" class="cls-3" width="425.32" height="494.09" transform="translate(408.811 186.431)"/>
    <circle id="Elipse_1" data-name="Elipse 1" class="cls-4" cx="18.1" cy="18.1" r="18.1" transform="translate(602.631 694.591)"/>
    <path id="Trazado_2" data-name="Trazado 2" class="cls-4" d="M624.4,221.53a8.56,8.56,0,1,1,6.068-2.482A8.55,8.55,0,0,1,624.4,221.53Z" transform="translate(-3.689 -44.847)"/>
    <path id="Trazado_3" data-name="Trazado 3" class="cls-4" d="M624.4,204.93a8.05,8.05,0,1,1-8,8,8.05,8.05,0,0,1,8-8m0-1a9.05,9.05,0,1,0,9.05,9,9.05,9.05,0,0,0-9.05-9Z" transform="translate(-3.69 -44.843)"/>
    <path id="Trazado_4" data-name="Trazado 4" class="cls-5" d="M617.8,330.2V312.6H631v17.6h13.42V303.81H653l-28.6-26.4-28.59,26.4h8.57V330.2Z" transform="translate(-3.642 -45.952)"/>
    <path id="Trazado_5" data-name="Trazado 5" class="cls-6" d="M476.43,412V393a4.035,4.035,0,0,0-8.07,0v19a8.25,8.25,0,1,0,8.07,0ZM471,393a1.38,1.38,0,0,1,2.75,0v4.26H471Z" transform="translate(-11.881 -47.4)"/>
    <rect id="Rectángulo_3" data-name="Rectángulo 3" class="cls-7" width="240" height="2.67" transform="translate(526.527 359.376)"/>
    <circle id="Elipse_2" data-name="Elipse 2" class="cls-5" cx="6.33" cy="6.33" r="6.33" transform="translate(591.181 354.393)"/>
    <rect id="Rectángulo_4" data-name="Rectángulo 4" class="cls-5" width="74.11" height="2.67" transform="translate(521.304 359.376)"/>
    <path id="Trazado_6" data-name="Trazado 6" class="cls-6" d="M473.79,504.84a1.44,1.44,0,0,0-1.48-1.26,1.46,1.46,0,0,0-1.45,1.08l-1.46,7.94a3.077,3.077,0,0,0-.06.61,3,3,0,1,0,5.9-.73Zm11.36,3.41a3.912,3.912,0,0,0-.49-.34l-5.92-4.08a1.2,1.2,0,0,0-1.53.08,1,1,0,0,0-.16,1.32l4.56,5.65a2.561,2.561,0,0,0,.3.37,2.47,2.47,0,0,0,3.23,0,2,2,0,0,0,0-3Zm4-5.83-5.55-.2a.65.65,0,0,0-.74.52.72.72,0,0,0,.44.76h0l5.37,1.52c.78.17,1.65-.19,1.65-1,0-1-.29-1.51-1.17-1.61Zm-27.58,1.08a.72.72,0,0,0,.44-.76.66.66,0,0,0-.75-.52l-5.54.2c-.89.1-1.15.59-1.15,1.6,0,.8.85,1.17,1.62,1l5.37-1.53Zm4.53.32-5.92,4.07a3.21,3.21,0,0,0-.48.34,2,2,0,0,0,0,3,2.39,2.39,0,0,0,3.22,0,1.739,1.739,0,0,0,.31-.36l4.56-5.63a1,1,0,0,0-.16-1.32,1.21,1.21,0,0,0-1.57-.1Zm6.34-26.36s2.6,3,2.6,5.53a4,4,0,0,1-3.95,4.32,4.21,4.21,0,0,1-4.2-4.32v-.59a16.41,16.41,0,0,0-3.74,10.47,9.26,9.26,0,0,0,18.52,0c0-6.24-3.08-13.55-9.27-15.41Zm-.33,21.2a3.69,3.69,0,0,1-3.73-3.64,3.62,3.62,0,0,1,3.25-3.61,9,9,0,0,0,5.36-3,16.251,16.251,0,0,1,.68,4.68,5.56,5.56,0,0,1-5.56,5.56Z" transform="translate(-11.999 -48.598)"/>
    <rect id="Rectángulo_5" data-name="Rectángulo 5" class="cls-7" width="240" height="2.67" transform="translate(526.527 446.802)"/>
    <circle id="Elipse_3" data-name="Elipse 3" class="cls-5" cx="6.33" cy="6.33" r="6.33" transform="translate(650.188 441.804)"/>
    <rect id="Rectángulo_6" data-name="Rectángulo 6" class="cls-5" width="130.72" height="2.67" transform="translate(522.891 446.802)"/>
    <path id="Trazado_7" data-name="Trazado 7" class="cls-6" d="M466.9,599.43a1.73,1.73,0,0,0,1.72,1.72h7.56a1.73,1.73,0,0,0,1.72-1.72v-1.54h-11Zm5.5-31.28c-6.85,0-12.37,5.15-12.37,11.52a11.34,11.34,0,0,0,5.28,9.5v3.73a1.71,1.71,0,0,0,1.77,1.65h10.64a1.71,1.71,0,0,0,1.77-1.65v-3.73a11.32,11.32,0,0,0,5.29-9.5c0-6.37-5.53-11.52-12.38-11.52Z" transform="translate(-11.932 -49.772)"/>
    <rect id="Rectángulo_7" data-name="Rectángulo 7" class="cls-7" width="240" height="2.67" transform="translate(526.527 533.616)"/>
    <circle id="Elipse_4" data-name="Elipse 4" class="cls-5" cx="6.33" cy="6.33" r="6.33" transform="translate(715.517 528.594)"/>
    <rect id="Rectángulo_8" data-name="Rectángulo 8" class="cls-5" width="192.72" height="2.67" transform="translate(524.85 533.616)"/>
    <path id="Trazado_8" data-name="Trazado 8" class="cls-6" d="M464.15,651.85v19.24h5.5v16.5l11-22h-5.5l5.5-13.74Z" transform="translate(-11.881 -50.924)"/>
    <rect id="Rectángulo_9" data-name="Rectángulo 9" class="cls-7" width="240" height="2.67" transform="translate(526.527 617.587)"/>
    <circle id="Elipse_5" data-name="Elipse 5" class="cls-5" cx="6.33" cy="6.33" r="6.33" transform="translate(591.181 612.551)"/>
    <rect id="Rectángulo_10" data-name="Rectángulo 10" class="cls-5" width="74.11" height="2.67" transform="translate(521.304 617.587)"/>
    <ellipse id="Elipse_6" data-name="Elipse 6" class="cls-5" cx="59.47" cy="11.44" rx="59.47" ry="11.44" transform="translate(301.496 758.611)"/>
    <ellipse id="Elipse_7" data-name="Elipse 7" class="cls-8" cx="6.92" cy="9.06" rx="6.92" ry="9.06" transform="translate(354.237 756.131)"/>
    <ellipse id="Elipse_8" data-name="Elipse 8" class="cls-8" cx="6.92" cy="9.06" rx="6.92" ry="9.06" transform="translate(354.237 745.051)"/>
    <ellipse id="Elipse_9" data-name="Elipse 9" class="cls-8" cx="6.92" cy="9.06" rx="6.92" ry="9.06" transform="translate(354.237 733.981)"/>
    <ellipse id="Elipse_10" data-name="Elipse 10" class="cls-8" cx="6.92" cy="9.06" rx="6.92" ry="9.06" transform="translate(354.237 722.901)"/>
    <ellipse id="Elipse_11" data-name="Elipse 11" class="cls-8" cx="6.92" cy="9.06" rx="6.92" ry="9.06" transform="translate(354.237 711.821)"/>
    <ellipse id="Elipse_12" data-name="Elipse 12" class="cls-8" cx="6.92" cy="9.06" rx="6.92" ry="9.06" transform="translate(354.237 700.741)"/>
    <ellipse id="Elipse_13" data-name="Elipse 13" class="cls-8" cx="6.92" cy="9.06" rx="6.92" ry="9.06" transform="translate(354.237 689.661)"/>
    <path id="Trazado_9" data-name="Trazado 9" class="cls-5" d="M404,676.13a34.278,34.278,0,0,0,2.58-3.8l-18.2-3,19.68.15a33.27,33.27,0,0,0,.63-26.28l-26.38,13.7L406.65,639a33.17,33.17,0,1,0-54.78,37.12,33.853,33.853,0,0,0-3.78,6l23.62,12.27L346.53,686a33.19,33.19,0,0,0,5.34,31.14,33.16,33.16,0,1,0,52.14,0,33.18,33.18,0,0,0,0-41Z" transform="translate(-17.53 -53.209)"/>
    <path id="Trazado_10" data-name="Trazado 10" class="cls-9" d="M344.78,696.63a33,33,0,0,0,7.09,20.5,33.16,33.16,0,1,0,52.14,0C408.45,711.49,344.78,692.91,344.78,696.63Z" transform="translate(-17.53 -53.209)"/>
    <ellipse id="Elipse_14" data-name="Elipse 14" class="cls-5" cx="91.94" cy="17.68" rx="91.94" ry="17.68" transform="translate(121.98 653.081)"/>
    <ellipse id="Elipse_15" data-name="Elipse 15" class="cls-8" cx="10.7" cy="14.01" rx="10.7" ry="14.01" transform="translate(221.666 649.241)"/>
    <ellipse id="Elipse_16" data-name="Elipse 16" class="cls-8" cx="10.7" cy="14.01" rx="10.7" ry="14.01" transform="translate(221.666 634.03)"/>
    <ellipse id="Elipse_17" data-name="Elipse 17" class="cls-8" cx="10.7" cy="14.01" rx="10.7" ry="14.01" transform="translate(221.666 617.129)"/>
    <ellipse id="Elipse_18" data-name="Elipse 18" class="cls-8" cx="10.7" cy="14.01" rx="10.7" ry="14.01" transform="translate(221.666 600.227)"/>
    <ellipse id="Elipse_19" data-name="Elipse 19" class="cls-8" cx="10.7" cy="14.01" rx="10.7" ry="14.01" transform="translate(221.666 583.336)"/>
    <ellipse id="Elipse_20" data-name="Elipse 20" class="cls-8" cx="10.7" cy="14.01" rx="10.7" ry="14.01" transform="translate(221.666 566.434)"/>
    <ellipse id="Elipse_21" data-name="Elipse 21" class="cls-8" cx="10.7" cy="14.01" rx="10.7" ry="14.01" transform="translate(221.666 549.533)"/>
    <path id="Trazado_11" data-name="Trazado 11" class="cls-5" d="M210.38,496.48a52.243,52.243,0,0,1-4-5.87L234.52,486l-30.42.23a51.41,51.41,0,0,1-1-40.63l40.82,21.17L206.3,439.09A51.28,51.28,0,1,1,291,496.48a50.9,50.9,0,0,1,5.84,9.35l-36.51,19,38.93-13.07A51.3,51.3,0,0,1,291,559.89a51.28,51.28,0,1,1-80.61,0,51.3,51.3,0,0,1,0-63.41Z" transform="translate(-35 -49.366)"/>
    <path id="Trazado_12" data-name="Trazado 12" class="cls-9" d="M302,528.18a51.1,51.1,0,0,1-11,31.71,51.28,51.28,0,1,1-80.61,0C203.51,551.16,302,522.43,302,528.18Z" transform="translate(-35 -49.992)"/>
    <ellipse id="Elipse_22" data-name="Elipse 22" class="cls-1" cx="99" cy="21" rx="99" ry="21" transform="translate(842.985 762.071)"/>
    <path id="Trazado_13" data-name="Trazado 13" class="cls-10" d="M880.25,838.7a5.829,5.829,0,0,0,.38,1.49,8.51,8.51,0,0,0,3.28,4.55,8.928,8.928,0,0,0,2.6,1c6.13,1.47,12.5,1,18.76,1.63s12.89,2.26,19.07.5a5.084,5.084,0,0,0,3.6-2.7,1.616,1.616,0,0,0,.09-.29c4.49.58,9,1,13.3-.21a5.1,5.1,0,0,0,3.6-2.7,6.1,6.1,0,0,0,.21-2.41c-.18-4.21-.38-8.48-1.66-12.47a34.992,34.992,0,0,0-1.71-4.21q-1.47-3.15-3.2-6.15l-.35-.65c.84.37,1.66.77,2.47,1.2a209.99,209.99,0,0,0,8.09-35.41A124.519,124.519,0,0,0,947.54,739a61.048,61.048,0,0,1-1-14.29c.41-9.53,2.62-18.85,4.82-28.11q1.68-7,3.35-14.09,2.38-10,4.78-20.08c1.06-4.45,2.12-9,1.79-13.58a35.5,35.5,0,0,0-1.48-7.38,85.119,85.119,0,0,0-4.2-11.34,1.9,1.9,0,0,0,1.41-.29,2.41,2.41,0,0,0,.63-1.25l2.52-9.08c1.77-6.36,3.54-12.77,4-19.37.55-7.47-.58-15-.82-22.44-.31-9.72.87-19.47.24-29.17-.14-2.1-.36-4.19-.61-6.27.11-1.1.14-2.2.17-3.3.16-5.42.1-10.83-1.89-15.83a22,22,0,0,0-6.59-9.14c.09-.45.19-.89.28-1.34l2.1-10c2.32-11.09,4.66-22.45,3.33-33.72-1.19-10-5.88-20.16-13.82-25.5l-.07-.05-.85-.54-.15-.09c-.26-.16-.53-.31-.8-.45l-.2-.11c-.32-.18-.66-.35-1-.5a31.6,31.6,0,0,0-8-2.39l-1.1-.17a30.679,30.679,0,0,0-3.31-.34h-1.11a22.889,22.889,0,0,0-3.31.2,6.466,6.466,0,0,0-1.22.2l-1.2.25a50.635,50.635,0,0,1-7.24,1.51c-.46,0-.93.06-1.39.07-1.39,0-2.78-.09-4.18-.17-.69,0-1.39-.06-2.08-.06a16.463,16.463,0,0,0-3.43.31,14.461,14.461,0,0,0-5.4,2.49,22.563,22.563,0,0,0-3.28,2.92,33.1,33.1,0,0,0-2.28,2.74c-.33.44-.65.89-1,1.36l-.46.71c-.29.49-.57,1-.83,1.48a18.994,18.994,0,0,0-1,2.32,11.09,11.09,0,0,0-.45,6.49,12.519,12.519,0,0,0,.44,1.35,25.429,25.429,0,0,0-2.75,11.59c0,11,6.86,20.28,16.29,23.34,1.15,2.12,2.55,4.82,3.72,7.44a26.86,26.86,0,0,0-6.39,6.46c-5.86-.33-11.64,4.34-13.5,10.23a18.6,18.6,0,0,0-.71,7c-1.22,4.92-1.28,10.24-1.39,15.38-.17,8.1-.59,16.18-1,24.27s-.83,16.11-1.25,24.17c-.12,2.31-.24,4.63-.54,6.92-1.47.39-1.54,2.4-1.37,4,.46,4.27,1.21,8.59,1.69,12.88a21.271,21.271,0,0,0-.41,8.09l.85.38a32.409,32.409,0,0,1-1.2,8.17,2.931,2.931,0,0,1-.64,1.31,4.333,4.333,0,0,1,1.33-.33c-1.27,4.18-2.28,8.46-3.77,12.57-.77,2.12-1.67,4.2-2.33,6.37a59.683,59.683,0,0,0-1.4,6.26,30.477,30.477,0,0,0-.53,3.68,15.53,15.53,0,0,0,5.27,12.66c0,.82-.06,1.63-.06,2.45,0,5.85.86,11.68.65,17.52-.28,7.87-1.69,15.32-1.73,23.2-.13,21.8,5.85,43.11,12.87,63.6q4.17,12.18,8.85,24.13c1.84,4.72,3.92,10,1.94,14.63.67-.27,1.33-.52,2-.76a21,21,0,0,1-4.58,7A19.28,19.28,0,0,1,890.08,833c-2.09.23-4.24.11-6.23.84S880.05,836.49,880.25,838.7Zm25.56-113.12a96.871,96.871,0,0,1,12.28-31.88l.06.65c.32,3.22.91,6.44,1.55,9.65,1.34,6.76,2.91,13.51,2.67,20.3a115.632,115.632,0,0,0,1.26,21.52,34.089,34.089,0,0,0,2,8.14,43.23,43.23,0,0,1,2,4.64,22.176,22.176,0,0,1,.8,5.75,206.92,206.92,0,0,1-2.92,47.89c-.69,0-1.13.11-1.14.2a21.681,21.681,0,0,1-2.73,7.66l-.12-.22c-.24-.42-.49-.9-.75-1.38l.83.13c-2.29-4.94-2.08-10.7-2.18-16.2a149.142,149.142,0,0,0-2.27-22.25A129.4,129.4,0,0,0,907,748a25.2,25.2,0,0,1-2-6.78A45.6,45.6,0,0,1,905.81,725.58Zm41.25-119a17.008,17.008,0,0,0-1.21-1.46c-1-1.07-2.2-2.31-1.9-3.77a3.691,3.691,0,0,1,.84-1.54,22.005,22.005,0,0,1,2.66-2.79l.32-.28q-.36,4.89-.71,9.81Z" transform="translate(13.433 -53.209)"/>
    <path id="Trazado_14" data-name="Trazado 14" class="cls-5" d="M961.64,534l1.1,8.49c.37,2.88.74,5.75.94,8.64.67,9.62-.57,19.28-.25,28.92.26,7.42,1.44,14.83.87,22.24-.51,6.54-2.37,12.9-4.23,19.2l-2.64,9a2.38,2.38,0,0,1-.66,1.24,2.33,2.33,0,0,1-1.69.27l-11.72-1c.75-3.44,1.58-7,2-10.53.32-2.76.51-5.54.71-8.32.62-8.66,1.33-17.32,2-26l1.25-15.2c.53-6.6,1.08-13.23,2.74-19.64A39.089,39.089,0,0,1,961.64,534Z" transform="translate(24.985 -49.912)"/>
    <path id="Trazado_15" data-name="Trazado 15" class="cls-9" d="M961.64,534l1.1,8.49c.37,2.88.74,5.75.94,8.64.67,9.62-.57,19.28-.25,28.92.26,7.42,1.44,14.83.87,22.24-.51,6.54-2.37,12.9-4.23,19.2l-2.64,9a2.38,2.38,0,0,1-.66,1.24,2.33,2.33,0,0,1-1.69.27l-11.72-1c.75-3.44,1.58-7,2-10.53.32-2.76.51-5.54.71-8.32.62-8.66,1.33-17.32,2-26l1.25-15.2c.53-6.6,1.08-13.23,2.74-19.64A39.089,39.089,0,0,1,961.64,534Z" transform="translate(24.985 -49.912)"/>
    <path id="Trazado_16" data-name="Trazado 16" class="cls-11" d="M940.76,823.05a35.82,35.82,0,0,1,1.8,4.18c1.34,3.95,1.54,8.19,1.74,12.36a6,6,0,0,1-.22,2.39c-.58,1.5-2.24,2.26-3.79,2.67-6.49,1.75-13.33.11-20-.49s-13.26-.16-19.7-1.61a10.06,10.06,0,0,1-2.73-.95,8.51,8.51,0,0,1-3.45-4.5,5.882,5.882,0,0,1-.39-1.48c-.21-2.2,1.7-4.1,3.78-4.82s4.35-.61,6.54-.83a20.6,20.6,0,0,0,18.24-17.21c.08-.48,10.84-.19,12,.43,1.32.73,2.12,2.54,2.87,3.77Q939.22,819.93,940.76,823.05Z" transform="translate(12.726 -53.209)"/>
    <path id="Trazado_17" data-name="Trazado 17" class="cls-9" d="M940.76,823.05a35.82,35.82,0,0,1,1.8,4.18c1.34,3.95,1.54,8.19,1.74,12.36a6,6,0,0,1-.22,2.39c-.58,1.5-2.24,2.26-3.79,2.67-6.49,1.75-13.33.11-20-.49s-13.26-.16-19.7-1.61a10.06,10.06,0,0,1-2.73-.95,8.51,8.51,0,0,1-3.45-4.5,5.882,5.882,0,0,1-.39-1.48c-.21-2.2,1.7-4.1,3.78-4.82s4.35-.61,6.54-.83a20.6,20.6,0,0,0,18.24-17.21c.08-.48,10.84-.19,12,.43,1.32.73,2.12,2.54,2.87,3.77Q939.22,819.93,940.76,823.05Z" transform="translate(12.726 -53.209)"/>
    <path id="Trazado_18" data-name="Trazado 18" class="cls-11" d="M922.91,826.23a33.99,33.99,0,0,1,1.8,4.17c1.35,4,1.55,8.19,1.74,12.36a5.831,5.831,0,0,1-.22,2.39c-.57,1.5-2.23,2.26-3.78,2.68-6.49,1.74-13.34.1-20-.5s-13.27-.16-19.7-1.61a9.622,9.622,0,0,1-2.73-1,8.47,8.47,0,0,1-3.45-4.5,5.881,5.881,0,0,1-.39-1.48c-.21-2.19,1.7-4.1,3.78-4.82s4.35-.6,6.54-.83a20.61,20.61,0,0,0,18.24-17.2c.08-.48,10.84-.2,12,.42,1.33.73,2.13,2.54,2.88,3.77C920.76,822.11,921.88,824.15,922.91,826.23Z" transform="translate(11.735 -53.209)"/>
    <path id="Trazado_19" data-name="Trazado 19" class="cls-12" d="M876.38,720c-.14,21.61,6.14,42.73,13.51,63q4.38,12.06,9.29,23.91c1.94,4.68,4.13,9.88,2.05,14.5,6-2.28,12.1-3.62,18.41-2.57-2.4-4.9-2.17-10.6-2.28-16A140.293,140.293,0,0,0,915,780.79a123,123,0,0,0-10.79-31.89,24.3,24.3,0,0,1-2.09-6.72c-.82-5.14-.18-10.42.89-15.51a92.473,92.473,0,0,1,12.9-31.6l.06.64a93.282,93.282,0,0,0,1.62,9.57c1.41,6.69,3.06,13.39,2.81,20.12a108.828,108.828,0,0,0,1.32,21.33,32.425,32.425,0,0,0,2.15,8.06c.69,1.55,1.59,3,2.13,4.61a21,21,0,0,1,.84,5.7,193.3,193.3,0,0,1-3.32,48.74c5.57-.44,11.14,1.17,16.12,3.67a198.538,198.538,0,0,0,8.5-35.1,116.62,116.62,0,0,0-1.3-42.46,56.419,56.419,0,0,1-1.05-14.15c.43-9.45,2.75-18.69,5.06-27.87l3.52-14q2.5-10,5-19.91c1.11-4.41,2.23-8.92,1.88-13.46a33.4,33.4,0,0,0-1.56-7.32,81.688,81.688,0,0,0-11.07-22.64c-19.27,1.08-38.77-.72-58-2.2a3.89,3.89,0,0,0-2.72.46,3.85,3.85,0,0,0-1.1,2.48l-7.23,41a103,103,0,0,0-2,17.3c0,5.8.9,11.58.68,17.37C877.9,704.81,876.42,712.19,876.38,720Z" transform="translate(13.295 -53.209)"/>
    <path id="Trazado_20" data-name="Trazado 20" class="cls-9" d="M916,695.71a93.265,93.265,0,0,0,1.62,9.57c4.19-7.25,8.71-14.32,12.57-21.75,1-1.91,1.94-3.85,2.89-5.79l2.85-5.8c.53-1.09,1.06-2.18,1.54-3.29a23.778,23.778,0,0,0,1.79-5c-1.4-.26-4.86,3.52-5.9,4.51a80.638,80.638,0,0,0-6,6.64A72.812,72.812,0,0,0,921,683,39.881,39.881,0,0,0,916,695.71Z" transform="translate(12.751 -51.146)"/>
    <path id="Trazado_21" data-name="Trazado 21" class="cls-13" d="M899.9,496.8s10.7,17.05,8.72,20.62,33.7-3.17,33.7-3.17-19.43-17.05-17.44-24.19S899.9,496.8,899.9,496.8Z" transform="translate(12.704 -48.677)"/>
    <circle id="Elipse_23" data-name="Elipse 23" class="cls-13" cx="24.19" cy="24.19" r="24.19" transform="translate(897.373 405.235)"/>
    <path id="Trazado_22" data-name="Trazado 22" class="cls-5" d="M899.54,514.68a24.56,24.56,0,0,1,10.17-8.21,36.383,36.383,0,0,1,7.23-1.78l9.65-1.7c2.36-.42,4.89-.81,7.09.16a11.618,11.618,0,0,1,3,2.21c3.35,3.11,6.6,6.52,10.81,8.32,1.15.49,2.35.85,3.5,1.34,4.71,2,8.23,6.26,10.22,11,2.1,4.94,2.16,10.31,2,15.68a27.549,27.549,0,0,1-.55,5.52,35.573,35.573,0,0,1-1.83,5.06A92.58,92.58,0,0,0,957.51,563q-3.75,14.35-6.24,29a10.868,10.868,0,0,1-1.21,4,14.36,14.36,0,0,1-3.34,3.21,20.856,20.856,0,0,0-2.79,2.77,3.619,3.619,0,0,0-.89,1.52c-.31,1.44,1,2.68,2,3.73a18.06,18.06,0,0,1,4.52,7.87,3.17,3.17,0,0,1,.72,2.17,3.8,3.8,0,0,0-.23,1.72,3.88,3.88,0,0,0,.91,1.41,5.33,5.33,0,0,1,1,4.28,67.89,67.89,0,0,1-23.68,5.54c-2,.1-4,.1-6,.34-1.42.18-2.82.47-4.24.64a45.765,45.765,0,0,1-6.2.16c-10.77-.22-21.85-.49-31.74-4.76-.93-5.07,1.08-10.24,2.34-15.24,2-8,2.5-16.19,4-24.26,1-5.51,2.5-10.94,3.35-16.49s1.05-11.3-.48-16.7c-1.35-4.78-1.76-9.66-3.16-14.43s-2.38-9.94-.8-14.66C887.31,519,893.38,514.35,899.54,514.68Z" transform="translate(13.424 -49.754)"/>
    <path id="Trazado_23" data-name="Trazado 23" class="cls-12" d="M887.66,464.94c-1.18-4.29,1.14-8.76,3.9-12.25,3-3.75,6.82-7.13,11.51-8.07,3.81-.77,7.76.16,11.64-.15,3.43-.27,6.73-1.51,10.14-2a32.12,32.12,0,0,1,9.28.35,35.249,35.249,0,0,1,8.45,2.36c10.3,4.57,16.33,15.83,17.73,27s-1,22.43-3.49,33.42l-2.21,9.94c-2.3,10.35-4.6,20.74-5.21,31.32s.53,21.44,4.88,31.1a66.89,66.89,0,0,1-30.73-34.79c-1.56-4.09-2.72-8.34-4.46-12.36-1.49-3.46-3.4-6.74-4.72-10.27a33.36,33.36,0,0,1-2.11-12.47c.08-3.2.61-6.38.52-9.58s-.91-6.53-3.12-8.85c-2-2.05-4.75-3-7.28-4.33a30.31,30.31,0,0,1-10.19-8.5c-1.59-2.08-1.68-3-2.08-5.36S888.28,467.21,887.66,464.94Z" transform="translate(13.389 -48.894)"/>
    <path id="Trazado_24" data-name="Trazado 24" class="cls-13" d="M887.63,646.65c-.25,2.49.2,5-.34,7.47-.41,1.84-1.36,3.5-1.92,5.3a25.2,25.2,0,0,0-.85,6.37c-.08,1.8.06,4,1.66,4.84.7.37,1.54.37,2.27.69s1.35,1.19.93,1.87-1.14.57-1.8.7-1.37.81-1,1.36a1.141,1.141,0,0,0,.58.37,7.081,7.081,0,0,1,1.88.9,1.92,1.92,0,0,1,.77,1.83,1.13,1.13,0,0,1-1.61.74,5,5,0,0,1,.47,2c-2.56,1.1-5.43-.34-7.83-1.73a29.49,29.49,0,0,1-3-1.92A15,15,0,0,1,872,664.67a29.807,29.807,0,0,1,.57-3.65,54.938,54.938,0,0,1,1.47-6.21c.69-2.15,1.63-4.2,2.44-6.31,1.72-4.49,2.83-9.19,4.39-13.74a2.08,2.08,0,0,1,.75-1.19,2.11,2.11,0,0,1,1.11-.21,18.19,18.19,0,0,1,5.21.48c1,.3,2.71,1,3.18,2s-.28,1.84-.73,2.67a22.377,22.377,0,0,0-2.76,8.14Z" transform="translate(10.203 -50.803)"/>
    <path id="Trazado_25" data-name="Trazado 25" class="cls-9" d="M889.26,525.14a7.328,7.328,0,0,0-1.28,1.78c-3.44,6.25-3.48,13.72-3.64,20.85-.18,8-.62,16-1.06,24.05l-1.31,24c-.13,2.29-.25,4.58-.58,6.85-1.54.39-1.6,2.39-1.43,4,1.11,9.78,3.86,19.85,1,29.26a2.941,2.941,0,0,1-.67,1.3,7.81,7.81,0,0,1,4.47-.06c1.43.3,2.81.83,4.25,1.16,1.82.41,3.88.59,5.12,2a99.226,99.226,0,0,0,3.35-12.92c.68-4,.87-8.12,2.49-11.82.65-1.49,1.53-2.87,2.33-4.3,4.19-7.48,6.25-15.93,8.26-24.27a35.43,35.43,0,0,0,.64-12.06,41.464,41.464,0,0,1-.5-5.55,42.654,42.654,0,0,1,.77-5.84,39.151,39.151,0,0,0-1.17-16.91c-1.5-5.09-2.82-10.45-6-14.73S894.57,525.21,889.26,525.14Z" transform="translate(11.159 -49.955)"/>
    <path id="Trazado_26" data-name="Trazado 26" class="cls-5" d="M888.07,524.34a7.389,7.389,0,0,0-1.28,1.79c-3.44,6.24-3.48,13.72-3.64,20.85-.18,8-.62,16-1.06,24l-1.31,24c-.13,2.29-.25,4.58-.58,6.85-1.54.39-1.6,2.39-1.42,4,1.1,9.78,3.85,19.84,1,29.26a2.941,2.941,0,0,1-.67,1.3,7.81,7.81,0,0,1,4.47-.06c1.43.3,2.81.83,4.25,1.15,1.82.42,3.88.59,5.12,2a98.208,98.208,0,0,0,3.35-12.93c.68-4,.87-8.11,2.49-11.81a48.31,48.31,0,0,1,2.33-4.3c4.2-7.48,6.25-15.94,8.26-24.28a35.421,35.421,0,0,0,.64-12.06,26,26,0,0,1,.27-11.39,39.1,39.1,0,0,0-1.17-16.9c-1.5-5.09-2.82-10.45-6-14.73S893.38,524.42,888.07,524.34Z" transform="translate(11.095 -49.943)"/>
    <g id="Grupo_1" data-name="Grupo 1" class="cls-14" transform="translate(900.441 393.391)">
      <path id="Trazado_27" data-name="Trazado 27" d="M891.56,452.69c3-3.75,6.82-7.13,11.51-8.07,3.81-.77,7.76.16,11.64-.15,3.43-.27,6.73-1.51,10.14-2a32.12,32.12,0,0,1,9.28.35,35.249,35.249,0,0,1,8.45,2.36,25.1,25.1,0,0,1,4.17,2.37,35.563,35.563,0,0,0-7.47-2,32,32,0,0,0-9.27-.35c-3.42.44-6.71,1.67-10.15,1.94-3.87.31-7.82-.61-11.64.15-4.69.94-8.53,4.33-11.5,8.08-2.77,3.48-5.08,7.95-3.91,12.25.62,2.26,2.06,4.24,2.45,6.57s.49,3.28,2.09,5.36a30.38,30.38,0,0,0,7.34,6.83c-.77-.36-1.56-.72-2.31-1.11a30.31,30.31,0,0,1-10.19-8.5c-1.59-2.08-1.68-3-2.08-5.36s-1.83-4.3-2.45-6.57C886.48,460.65,888.8,456.18,891.56,452.69Z" transform="translate(-887.345 -442.285)"/>
      <path id="Trazado_28" data-name="Trazado 28" d="M909.66,489.7a10,10,0,0,0-1.35-1.17c2.31,1.12,4.74,2.1,6.51,4,2.21,2.31,3,5.65,3.12,8.85s-.45,6.38-.52,9.57a33.411,33.411,0,0,0,2.11,12.48c1.32,3.53,3.23,6.8,4.72,10.27,1.73,4,2.89,8.26,4.45,12.35a67,67,0,0,0,25.41,31.62c.06.13.11.27.17.4a66.89,66.89,0,0,1-30.73-34.79c-1.56-4.09-2.72-8.34-4.46-12.36-1.49-3.46-3.4-6.74-4.72-10.27a33.36,33.36,0,0,1-2.11-12.47c.08-3.2.61-6.38.52-9.58S911.87,492,909.66,489.7Z" transform="translate(-887.345 -442.285)"/>
    </g>
    <rect id="Rectángulo_11" data-name="Rectángulo 11" class="cls-1" width="82" height="58" rx="9.15" transform="translate(123 121.78)"/>
    <rect id="Rectángulo_12" data-name="Rectángulo 12" class="cls-1" width="82" height="58" rx="9.15" transform="translate(216.734 220.677)"/>
    <rect id="Rectángulo_13" data-name="Rectángulo 13" class="cls-1" width="82" height="58" rx="9.15" transform="translate(946.985 129.953)"/>
  </g>
</svg>
